<svg width="188" height="29" viewBox="0 0 188 29" fill="none" xmlns="http://www.w3.org/2000/svg">
<path d="M22.5153 17.4494C22.149 17.8199 21.9807 18.3558 22.0641 18.8814L23.3215 26.1446C23.4276 26.7602 23.1787 27.3831 22.685 27.7389C22.2013 28.108 21.5578 28.1523 21.0302 27.857L14.7659 24.4469C14.5481 24.3258 14.3063 24.2609 14.0587 24.2535H13.6754C13.5425 24.2741 13.4124 24.3184 13.2936 24.3863L7.02787 27.8127C6.71812 27.9751 6.36736 28.0327 6.02366 27.9751C5.18635 27.8098 4.62767 26.9772 4.76486 26.0988L6.02366 18.8356C6.10711 18.3056 5.9388 17.7668 5.57247 17.3903L0.465155 12.2234C0.0380126 11.7909 -0.110497 11.1413 0.084687 10.5553C0.274214 9.97066 0.757931 9.54402 1.34207 9.44806L8.37153 8.38368C8.90616 8.32611 9.37574 7.98657 9.61618 7.48464L12.7137 0.856231C12.7872 0.708605 12.882 0.572789 12.9965 0.457641L13.1238 0.354302C13.1903 0.277537 13.2667 0.214058 13.3516 0.162389L13.5057 0.103338L13.7462 0H14.3416C14.8734 0.0575741 15.3416 0.389733 15.5863 0.885756L18.7248 7.48464C18.9511 7.96738 19.391 8.30249 19.8987 8.38368L26.9282 9.44806C27.5222 9.53664 28.0187 9.96476 28.2153 10.5553C28.4005 11.1472 28.2407 11.7968 27.8051 12.2234L22.5153 17.4494Z" fill="#FFE70F"/>
<path d="M62.6706 17.4494C62.3043 17.8199 62.136 18.3558 62.2194 18.8814L63.4768 26.1446C63.5829 26.7602 63.3339 27.3831 62.8403 27.7389C62.3566 28.108 61.7131 28.1523 61.1855 27.857L54.9212 24.4469C54.7034 24.3258 54.4615 24.2609 54.214 24.2535H53.8307C53.6978 24.2741 53.5676 24.3184 53.4488 24.3863L47.1831 27.8127C46.8734 27.9751 46.5226 28.0327 46.1789 27.9751C45.3416 27.8098 44.7829 26.9772 44.9201 26.0988L46.1789 18.8356C46.2624 18.3056 46.0941 17.7668 45.7277 17.3903L40.6204 12.2234C40.1933 11.7909 40.0448 11.1413 40.24 10.5553C40.4295 9.97066 40.9132 9.54402 41.4973 9.44806L48.5268 8.38368C49.0614 8.32611 49.531 7.98657 49.7715 7.48464L52.8689 0.856231C52.9425 0.708605 53.0373 0.572789 53.1518 0.457641L53.2791 0.354302C53.3456 0.277537 53.422 0.214058 53.5068 0.162389L53.661 0.103338L53.9014 0H54.4969C55.0287 0.0575741 55.4969 0.389733 55.7415 0.885756L58.8801 7.48464C59.1064 7.96738 59.5462 8.30249 60.054 8.38368L67.0834 9.44806C67.6775 9.53664 68.1739 9.96476 68.3705 10.5553C68.5558 11.1472 68.396 11.7968 67.9604 12.2234L62.6706 17.4494Z" fill="#FFE70F"/>
<path d="M101.913 17.4494C101.547 17.8199 101.379 18.3558 101.462 18.8814L102.719 26.1446C102.826 26.7602 102.577 27.3831 102.083 27.7389C101.599 28.108 100.956 28.1523 100.428 27.857L94.1639 24.4469C93.9461 24.3258 93.7042 24.2609 93.4567 24.2535H93.0734C92.9404 24.2741 92.8103 24.3184 92.6915 24.3863L86.4258 27.8127C86.1161 27.9751 85.7653 28.0327 85.4216 27.9751C84.5843 27.8098 84.0256 26.9772 84.1628 26.0988L85.4216 18.8356C85.5051 18.3056 85.3367 17.7668 84.9704 17.3903L79.8631 12.2234C79.436 11.7909 79.2875 11.1413 79.4826 10.5553C79.6722 9.97066 80.1559 9.54402 80.74 9.44806L87.7695 8.38368C88.3041 8.32611 88.7737 7.98657 89.0141 7.48464L92.1116 0.856231C92.1852 0.708605 92.2799 0.572789 92.3945 0.457641L92.5218 0.354302C92.5883 0.277537 92.6646 0.214058 92.7495 0.162389L92.9037 0.103338L93.1441 0H93.7396C94.2714 0.0575741 94.7395 0.389733 94.9842 0.885756L98.1227 7.48464C98.349 7.96738 98.7889 8.30249 99.2967 8.38368L106.326 9.44806C106.92 9.53664 107.417 9.96476 107.613 10.5553C107.798 11.1472 107.639 11.7968 107.203 12.2234L101.913 17.4494Z" fill="#FFE70F"/>
<path d="M142.069 17.4494C141.702 17.8199 141.534 18.3558 141.618 18.8814L142.875 26.1446C142.981 26.7602 142.732 27.3831 142.239 27.7389C141.755 28.108 141.111 28.1523 140.584 27.857L134.319 24.4469C134.102 24.3258 133.86 24.2609 133.612 24.2535H133.229C133.096 24.2741 132.966 24.3184 132.847 24.3863L126.581 27.8127C126.272 27.9751 125.921 28.0327 125.577 27.9751C124.74 27.8098 124.181 26.9772 124.318 26.0988L125.577 18.8356C125.661 18.3056 125.492 17.7668 125.126 17.3903L120.019 12.2234C119.591 11.7909 119.443 11.1413 119.638 10.5553C119.828 9.97066 120.311 9.54402 120.896 9.44806L127.925 8.38368C128.46 8.32611 128.929 7.98657 129.17 7.48464L132.267 0.856231C132.341 0.708605 132.435 0.572789 132.55 0.457641L132.677 0.354302C132.744 0.277537 132.82 0.214058 132.905 0.162389L133.059 0.103338L133.3 0H133.895C134.427 0.0575741 134.895 0.389733 135.14 0.885756L138.278 7.48464C138.505 7.96738 138.944 8.30249 139.452 8.38368L146.482 9.44806C147.076 9.53664 147.572 9.96476 147.769 10.5553C147.954 11.1472 147.794 11.7968 147.359 12.2234L142.069 17.4494Z" fill="#FFE70F"/>
<path d="M182.079 17.5306C181.704 17.9028 181.531 18.4412 181.617 18.9692L182.906 26.2662C183.014 26.8846 182.759 27.5105 182.253 27.868C181.757 28.2387 181.098 28.2832 180.557 27.9866L174.136 24.5606C173.913 24.439 173.665 24.3737 173.411 24.3663H173.018C172.882 24.3871 172.748 24.4316 172.627 24.4998L166.204 27.9421C165.886 28.1053 165.527 28.1631 165.175 28.1053C164.316 27.9392 163.744 27.1027 163.884 26.2202L165.175 18.9232C165.26 18.3908 165.088 17.8494 164.712 17.4712L159.477 12.2803C159.039 11.8457 158.887 11.1932 159.087 10.6044C159.281 10.017 159.777 9.58842 160.376 9.49201L167.581 8.42268C168.129 8.36484 168.611 8.02372 168.857 7.51946L172.032 0.860214C172.108 0.711901 172.205 0.575453 172.322 0.459769L172.453 0.355951C172.521 0.278828 172.599 0.215053 172.686 0.163144L172.844 0.103819L173.091 0H173.701C174.246 0.057842 174.726 0.391546 174.977 0.889876L178.194 7.51946C178.426 8.00444 178.877 8.34111 179.397 8.42268L186.603 9.49201C187.212 9.581 187.721 10.0111 187.922 10.6044C188.112 11.1991 187.948 11.8517 187.502 12.2803L182.079 17.5306Z" fill="#DDDDDD"/>
</svg>
