<svg width="188" height="29" viewBox="0 0 188 29" fill="none" xmlns="http://www.w3.org/2000/svg">
<path d="M22.5153 17.4379C22.149 17.8082 21.9807 18.3437 22.0641 18.8689L23.3215 26.1273C23.4276 26.7425 23.1787 27.3651 22.685 27.7206C22.2013 28.0894 21.5578 28.1337 21.0302 27.8386L14.7659 24.4307C14.5481 24.3098 14.3063 24.2448 14.0587 24.2375H13.6754C13.5425 24.2581 13.4124 24.3024 13.2936 24.3702L7.02787 27.7944C6.71812 27.9567 6.36736 28.0142 6.02366 27.9567C5.18635 27.7914 4.62767 26.9594 4.76486 26.0816L6.02366 18.8232C6.10711 18.2935 5.9388 17.7551 5.57247 17.3789L0.465155 12.2154C0.0380126 11.7831 -0.110497 11.134 0.084687 10.5483C0.274214 9.96408 0.757931 9.53772 1.34207 9.44183L8.37153 8.37815C8.90616 8.32061 9.37574 7.98129 9.61618 7.4797L12.7137 0.855665C12.7872 0.708137 12.882 0.572411 12.9965 0.457338L13.1238 0.354068C13.1903 0.277354 13.2667 0.213916 13.3516 0.162281L13.5057 0.10327L13.7462 0H14.3416C14.8734 0.0575361 15.3416 0.389475 15.5863 0.885171L18.7248 7.4797C18.9511 7.96211 19.391 8.297 19.8987 8.37815L26.9282 9.44183C27.5222 9.53034 28.0187 9.95818 28.2153 10.5483C28.4005 11.1399 28.2407 11.789 27.8051 12.2154L22.5153 17.4379Z" fill="#FFE70F"/>
<path d="M62.6706 17.4379C62.3043 17.8082 62.136 18.3437 62.2194 18.8689L63.4768 26.1273C63.5829 26.7425 63.3339 27.3651 62.8403 27.7206C62.3566 28.0894 61.7131 28.1337 61.1855 27.8386L54.9212 24.4307C54.7034 24.3098 54.4615 24.2448 54.214 24.2375H53.8307C53.6978 24.2581 53.5676 24.3024 53.4488 24.3702L47.1831 27.7944C46.8734 27.9567 46.5226 28.0142 46.1789 27.9567C45.3416 27.7914 44.7829 26.9594 44.9201 26.0816L46.1789 18.8232C46.2624 18.2935 46.0941 17.7551 45.7277 17.3789L40.6204 12.2154C40.1933 11.7831 40.0448 11.134 40.24 10.5483C40.4295 9.96408 40.9132 9.53772 41.4973 9.44183L48.5268 8.37815C49.0614 8.32061 49.531 7.98129 49.7715 7.4797L52.8689 0.855665C52.9425 0.708137 53.0373 0.572411 53.1518 0.457338L53.2791 0.354068C53.3456 0.277354 53.422 0.213916 53.5068 0.162281L53.661 0.10327L53.9014 0H54.4969C55.0287 0.0575361 55.4969 0.389475 55.7415 0.885171L58.8801 7.4797C59.1064 7.96211 59.5462 8.297 60.054 8.37815L67.0834 9.44183C67.6775 9.53034 68.1739 9.95818 68.3705 10.5483C68.5558 11.1399 68.396 11.789 67.9604 12.2154L62.6706 17.4379Z" fill="#FFE70F"/>
<path d="M101.913 17.4379C101.547 17.8082 101.379 18.3437 101.462 18.8689L102.719 26.1273C102.826 26.7425 102.577 27.3651 102.083 27.7206C101.599 28.0894 100.956 28.1337 100.428 27.8386L94.1639 24.4307C93.9461 24.3098 93.7042 24.2448 93.4567 24.2375H93.0734C92.9404 24.2581 92.8103 24.3024 92.6915 24.3702L86.4258 27.7944C86.1161 27.9567 85.7653 28.0142 85.4216 27.9567C84.5843 27.7914 84.0256 26.9594 84.1628 26.0816L85.4216 18.8232C85.5051 18.2935 85.3367 17.7551 84.9704 17.3789L79.8631 12.2154C79.436 11.7831 79.2875 11.134 79.4826 10.5483C79.6722 9.96408 80.1559 9.53772 80.74 9.44183L87.7695 8.37815C88.3041 8.32061 88.7737 7.98129 89.0141 7.4797L92.1116 0.855665C92.1852 0.708137 92.2799 0.572411 92.3945 0.457338L92.5218 0.354068C92.5883 0.277354 92.6646 0.213916 92.7495 0.162281L92.9037 0.10327L93.1441 0H93.7396C94.2714 0.0575361 94.7395 0.389475 94.9842 0.885171L98.1227 7.4797C98.349 7.96211 98.7889 8.297 99.2967 8.37815L106.326 9.44183C106.92 9.53034 107.417 9.95818 107.613 10.5483C107.798 11.1399 107.639 11.789 107.203 12.2154L101.913 17.4379Z" fill="#FFE70F"/>
<path d="M142.069 17.4379C141.702 17.8082 141.534 18.3437 141.618 18.8689L142.875 26.1273C142.981 26.7425 142.732 27.3651 142.239 27.7206C141.755 28.0894 141.111 28.1337 140.584 27.8386L134.319 24.4307C134.102 24.3098 133.86 24.2448 133.612 24.2375H133.229C133.096 24.2581 132.966 24.3024 132.847 24.3702L126.581 27.7944C126.272 27.9567 125.921 28.0142 125.577 27.9567C124.74 27.7914 124.181 26.9594 124.318 26.0816L125.577 18.8232C125.661 18.2935 125.492 17.7551 125.126 17.3789L120.019 12.2154C119.591 11.7831 119.443 11.134 119.638 10.5483C119.828 9.96408 120.311 9.53772 120.896 9.44183L127.925 8.37815C128.46 8.32061 128.929 7.98129 129.17 7.4797L132.267 0.855665C132.341 0.708137 132.435 0.572411 132.55 0.457338L132.677 0.354068C132.744 0.277354 132.82 0.213916 132.905 0.162281L133.059 0.10327L133.3 0H133.895C134.427 0.0575361 134.895 0.389475 135.14 0.885171L138.278 7.4797C138.505 7.96211 138.944 8.297 139.452 8.37815L146.482 9.44183C147.076 9.53034 147.572 9.95818 147.769 10.5483C147.954 11.1399 147.794 11.789 147.359 12.2154L142.069 17.4379Z" fill="#FFE70F"/>
<path d="M182.224 17.4379C181.858 17.8082 181.689 18.3437 181.773 18.8689L183.03 26.1273C183.136 26.7425 182.887 27.3651 182.394 27.7206C181.91 28.0894 181.267 28.1337 180.739 27.8386L174.475 24.4307C174.257 24.3098 174.015 24.2448 173.767 24.2375H173.384C173.251 24.2581 173.121 24.3024 173.002 24.3702L166.737 27.7944C166.427 27.9567 166.076 28.0142 165.732 27.9567C164.895 27.7914 164.336 26.9594 164.474 26.0816L165.732 18.8232C165.816 18.2935 165.648 17.7551 165.281 17.3789L160.174 12.2154C159.747 11.7831 159.598 11.134 159.793 10.5483C159.983 9.96408 160.467 9.53772 161.051 9.44183L168.08 8.37815C168.615 8.32061 169.084 7.98129 169.325 7.4797L172.422 0.855665C172.496 0.708137 172.591 0.572411 172.705 0.457338L172.833 0.354068C172.899 0.277354 172.975 0.213916 173.06 0.162281L173.214 0.10327L173.455 0H174.05C174.582 0.0575361 175.05 0.389475 175.295 0.885171L178.434 7.4797C178.66 7.96211 179.1 8.297 179.607 8.37815L186.637 9.44183C187.231 9.53034 187.727 9.95818 187.924 10.5483C188.109 11.1399 187.949 11.789 187.514 12.2154L182.224 17.4379Z" fill="#FFE70F"/>
</svg>
