<svg width="39" height="49" viewBox="0 0 39 49" fill="none" xmlns="http://www.w3.org/2000/svg">
<path d="M34.3484 17.0761C34.3484 25.2764 27.7007 31.9242 19.5003 31.9242C11.3 31.9242 4.65227 25.2764 4.65227 17.0761C4.65227 8.87572 11.3 2.22802 19.5003 2.22802C27.7007 2.22802 34.3484 8.87572 34.3484 17.0761Z" fill="white" stroke="#B000E1" stroke-width="3" stroke-linecap="round" stroke-linejoin="round"/>
<path d="M13.5096 30.6659C8.10696 32.2775 3.88325 36.0075 2.22844 40.6787C1.33076 43.2126 3.19055 45.596 5.85204 45.9743C8.71323 46.3809 13.1226 46.772 19.5 46.772C25.8774 46.772 30.2868 46.3809 33.148 45.9743C35.8095 45.596 37.6692 43.2126 36.7716 40.6787C35.1168 36.0075 30.8931 32.2775 25.4904 30.666C23.6582 31.4748 21.6316 31.9239 19.5 31.9239C17.3685 31.9239 15.3419 31.4748 13.5096 30.6659Z" fill="#B000E1" stroke="#B000E1" stroke-width="3" stroke-linejoin="round"/>
<path d="M34.3484 17.0761C34.3484 25.2764 27.7007 31.9242 19.5003 31.9242C11.3 31.9242 4.65227 25.2764 4.65227 17.0761C4.65227 8.87572 11.3 2.22802 19.5003 2.22802C27.7007 2.22802 34.3484 8.87572 34.3484 17.0761Z" stroke="#B000E1" stroke-width="3" stroke-linecap="round" stroke-linejoin="round"/>
<path d="M13.5096 30.6659C8.10695 32.2775 3.88325 36.0075 2.22844 40.6787C1.33076 43.2126 3.19055 45.596 5.85204 45.9743C8.71323 46.3809 13.1226 46.772 19.5 46.772C25.8774 46.772 30.2868 46.3809 33.148 45.9743C35.8095 45.596 37.6692 43.2126 36.7716 40.6787C35.1168 36.0075 30.8931 32.2775 25.4904 30.666" stroke="#B000E1" stroke-width="3" stroke-linecap="round" stroke-linejoin="round"/>
<path d="M23.741 22.3788C21.885 25.207 17.1124 25.207 15.2564 22.3788" stroke="#B000E1" stroke-width="3" stroke-linecap="round" stroke-linejoin="round"/>
<path d="M14.1975 13.8941V14.9552" stroke="#B000E1" stroke-width="3" stroke-linecap="round" stroke-linejoin="round"/>
<path d="M24.8028 13.8941V14.9552" stroke="#B000E1" stroke-width="3" stroke-linecap="round" stroke-linejoin="round"/>
</svg>
