<svg width="46" height="46" viewBox="0 0 46 46" fill="none" xmlns="http://www.w3.org/2000/svg">
<path d="M40.7353 17.7499H5.33071C4.85839 17.7456 4.39068 17.8488 3.9592 18.0524C3.52768 18.256 3.14244 18.5554 2.8294 18.9302C2.51636 19.3051 2.28287 19.7468 2.14462 20.2254C2.00637 20.704 1.96662 21.2086 2.02804 21.7049L4.43898 40.955C4.54381 41.8023 4.93752 42.5797 5.54589 43.1404C6.1543 43.7015 6.93529 44.007 7.74166 44H38.2583C39.0647 44.007 39.8459 43.7015 40.4542 43.1404C41.0625 42.5797 41.4563 41.8023 41.5609 40.955L43.9721 21.7049C44.0326 21.2144 43.9945 20.7159 43.8604 20.2421C43.726 19.7684 43.4982 19.3302 43.1926 18.9565C42.8867 18.5828 42.5094 18.282 42.0859 18.074C41.6624 17.8661 41.2022 17.7556 40.7353 17.7499Z" stroke="#B000E1" stroke-width="3" stroke-linecap="round" stroke-linejoin="round"/>
<path d="M31.6801 5.63987C33.7766 6.00208 35.6974 7.03913 37.1506 8.59327C38.6038 10.1475 39.5096 12.1337 39.7301 14.2499L40.1151 17.7499" stroke="#B000E1" stroke-width="3" stroke-linecap="round" stroke-linejoin="round"/>
<path d="M14.3209 5.70992C12.2348 6.0686 10.3218 7.0954 8.86985 8.63568C7.41795 10.176 6.50585 12.1463 6.27093 14.2499L5.88593 17.7499" stroke="#B000E1" stroke-width="3" stroke-linecap="round" stroke-linejoin="round"/>
<path d="M31.7501 6.37489C31.7501 6.94942 31.6369 7.51834 31.4171 8.04912C31.1972 8.57993 30.8749 9.06223 30.4687 9.46847C30.0624 9.87475 29.5801 10.197 29.0493 10.4169C28.5185 10.6367 27.9496 10.7499 27.3751 10.7499H18.6251C17.4647 10.7499 16.352 10.2889 15.5315 9.46847C14.711 8.648 14.2501 7.53521 14.2501 6.37489C14.2501 5.21457 14.711 4.10178 15.5315 3.28131C16.352 2.46083 17.4647 1.99988 18.6251 1.99988H27.3751C28.5354 1.99988 29.6482 2.46083 30.4687 3.28131C31.2891 4.10178 31.7501 5.21457 31.7501 6.37489Z" stroke="#B000E1" stroke-width="3" stroke-linecap="round" stroke-linejoin="round"/>
<line x1="35.5" y1="18" x2="35.5" y2="43.1794" stroke="#B000E1" stroke-width="3"/>
<line x1="27.5" y1="19" x2="27.5" y2="44.1794" stroke="#B000E1" stroke-width="3"/>
<line x1="10.5" y1="18" x2="10.5" y2="43.1794" stroke="#B000E1" stroke-width="3"/>
<line x1="18.5" y1="18" x2="18.5" y2="43.1794" stroke="#B000E1" stroke-width="3"/>
</svg>
