<svg width="48" height="49" viewBox="0 0 48 49" fill="none" xmlns="http://www.w3.org/2000/svg">
<path d="M38 17.5C38 25.232 31.732 31.5 24 31.5C16.268 31.5 10 25.232 10 17.5C10 9.76801 16.268 3.5 24 3.5C31.732 3.5 38 9.76801 38 17.5Z" stroke="#B000E1" stroke-width="3" stroke-linecap="round" stroke-linejoin="round"/>
<path d="M18.3517 30.3135C13.2577 31.833 9.27519 35.35 7.7149 39.7543C6.8685 42.1435 8.62206 44.3908 11.1315 44.7475C13.8293 45.1309 17.9868 45.4996 24 45.4996C30.0131 45.4996 34.1707 45.1309 36.8684 44.7475C39.3779 44.3908 41.1315 42.1435 40.2851 39.7543C38.7248 35.35 34.7423 31.833 29.6482 30.3135" stroke="#B000E1" stroke-width="3" stroke-linecap="round" stroke-linejoin="round"/>
<path d="M28 22C26.25 24.6667 21.75 24.6667 20 22" stroke="#B000E1" stroke-width="3" stroke-linecap="round" stroke-linejoin="round"/>
<path d="M19 15.5V16" stroke="#B000E1" stroke-width="3" stroke-linecap="round" stroke-linejoin="round"/>
<path d="M29.001 15.5V16" stroke="#B000E1" stroke-width="3" stroke-linecap="round" stroke-linejoin="round"/>
</svg>
