<svg width="48" height="49" viewBox="0 0 48 49" fill="none" xmlns="http://www.w3.org/2000/svg">
<path d="M3.09934 22.8897C3.347 24.535 4.94312 25.3381 6.60668 25.3692C9.58723 25.4251 15.2206 25.5 24 25.5C32.7794 25.5 38.4128 25.4251 41.3933 25.3692C43.0569 25.3381 44.653 24.535 44.9007 22.8897C44.9619 22.4826 45 22.0203 45 21.5C45 20.9797 44.9619 20.5174 44.9007 20.1103C44.653 18.465 43.0569 17.662 41.3933 17.6308C38.4128 17.5749 32.7794 17.5 24 17.5C15.2206 17.5 9.58723 17.5749 6.60668 17.6308C4.94313 17.6619 3.347 18.465 3.09934 20.1103C3.03807 20.5174 3 20.9797 3 21.5C3 22.0203 3.03807 22.4826 3.09934 22.8897Z" stroke="#B000E1" stroke-width="3" stroke-linecap="round" stroke-linejoin="round"/>
<path d="M6.39697 25.3613C6.83421 29.0932 7.66545 35.0196 9.04932 40.8232C9.58222 43.0581 11.436 44.7033 13.7204 44.9488C16.2357 45.2192 19.8486 45.5001 24 45.5001C28.1515 45.5001 31.7643 45.2192 34.2797 44.9488C36.564 44.7033 38.4178 43.0581 38.9507 40.8232C40.3346 35.0196 41.1658 29.0932 41.6031 25.3613" stroke="#B000E1" stroke-width="3" stroke-linecap="round" stroke-linejoin="round"/>
<path d="M29.9986 6.74238C29.9795 8.34238 28.6794 9.4302 27.0797 9.46729C26.2617 9.48625 25.2408 9.5 24 9.5C22.7592 9.5 21.7383 9.48625 20.9203 9.46729C19.3206 9.4302 18.0205 8.34239 18.0014 6.74239C18.0005 6.66354 18 6.58275 18 6.5C18 6.41726 18.0005 6.33647 18.0014 6.25761C18.0205 4.65762 19.3206 3.5698 20.9203 3.53271C21.7383 3.51375 22.7592 3.5 24 3.5C25.2408 3.5 26.2617 3.51375 27.0797 3.53271C28.6794 3.5698 29.9795 4.65762 29.9986 6.25762C29.9995 6.33647 30 6.41726 30 6.5C30 6.58274 29.9995 6.66353 29.9986 6.74238Z" stroke="#B000E1" stroke-width="3" stroke-linecap="round" stroke-linejoin="round"/>
<path d="M16 31.5L17 38.5" stroke="#B000E1" stroke-width="3" stroke-linecap="round" stroke-linejoin="round"/>
<path d="M32 31.5L31 38.5" stroke="#B000E1" stroke-width="3" stroke-linecap="round" stroke-linejoin="round"/>
<path d="M24 31.5V38.5" stroke="#B000E1" stroke-width="3" stroke-linecap="round" stroke-linejoin="round"/>
<path d="M18 6.5H15.0826C13.7774 6.5 12.5553 7.1346 11.8604 8.23949C10.6218 10.2088 8.60485 13.6484 7 17.5" stroke="#B000E1" stroke-width="3" stroke-linecap="round" stroke-linejoin="round"/>
<path d="M30 6.5H32.9174C34.2226 6.5 35.4447 7.1346 36.1396 8.23949C37.3782 10.2088 39.3952 13.6484 41 17.5" stroke="#B000E1" stroke-width="3" stroke-linecap="round" stroke-linejoin="round"/>
</svg>
