<svg width="49" height="49" viewBox="0 0 49 49" fill="none" xmlns="http://www.w3.org/2000/svg">
<path d="M43.4874 19.5C41.5957 10.371 33.3565 3.5 23.4792 3.5C12.2033 3.5 3.0625 12.4543 3.0625 23.5C3.0625 27.2961 4.14213 30.8452 6.01702 33.8687C5.10693 36.006 4.18142 38.5321 3.58963 40.8537C3.25753 42.1566 4.42434 43.255 5.74524 42.8958C8.03524 42.2729 10.5549 41.3668 12.7254 40.5041C14.7416 41.7303 16.9921 42.6219 19.3958 43.0999" stroke="#B000E1" stroke-width="3" stroke-linecap="round" stroke-linejoin="round"/>
<path d="M21.4375 33.5C21.4375 26.8726 26.922 21.5 33.6875 21.5C40.453 21.5 45.9375 26.8726 45.9375 33.5C45.9375 35.8026 45.2755 37.9537 44.1278 39.7806C44.5681 40.6919 45.0061 41.7412 45.3521 42.8659C45.7475 44.1517 44.5717 45.2572 43.2687 44.8398C42.1713 44.4883 41.1329 44.0672 40.2127 43.6578C38.3235 44.8248 36.0859 45.5 33.6875 45.5C26.922 45.5 21.4375 40.1274 21.4375 33.5Z" stroke="#B000E1" stroke-width="3" stroke-linejoin="round"/>
</svg>
