<svg width="47" height="47" viewBox="0 0 47 47" fill="none" xmlns="http://www.w3.org/2000/svg">
<path d="M41.7124 18.6042C39.8979 9.66539 31.995 2.9375 22.5208 2.9375C11.7053 2.9375 2.9375 11.7053 2.9375 22.5208C2.9375 26.2378 3.97307 29.713 5.77142 32.6735C4.89849 34.7663 4.01074 37.2398 3.44311 39.513C3.12457 40.7887 4.24376 41.8643 5.51074 41.5126C7.70727 40.9026 10.1241 40.0154 12.206 39.1707C14.1399 40.3713 16.2985 41.2444 18.6042 41.7124" stroke="#00CCFF" stroke-width="3" stroke-linecap="round" stroke-linejoin="round"/>
<path d="M20.5625 32.3125C20.5625 25.8232 25.8232 20.5625 32.3125 20.5625C38.8018 20.5625 44.0625 25.8232 44.0625 32.3125C44.0625 34.5671 43.4275 36.6734 42.3266 38.4623C42.7489 39.3546 43.1691 40.382 43.5009 41.4833C43.8803 42.7423 42.7525 43.8248 41.5027 43.4161C40.4501 43.0719 39.4541 42.6595 38.5713 42.2587C36.7593 43.4014 34.6131 44.0625 32.3125 44.0625C25.8232 44.0625 20.5625 38.8018 20.5625 32.3125Z" stroke="#00CCFF" stroke-width="3" stroke-linejoin="round"/>
</svg>
