<svg width="28" height="28" viewBox="0 0 28 28" fill="none" xmlns="http://www.w3.org/2000/svg">
<path d="M12.3815 25.9243C11.0251 25.7883 10.1857 24.6356 10.1337 23.2733C10.0893 22.1081 10.0439 20.4015 10.0189 17.9811C7.59853 17.9561 5.89187 17.9107 4.72667 17.8663C3.3644 17.8143 2.21173 16.9749 2.07573 15.6185C2.02987 15.1616 2 14.6243 2 14C2 13.3757 2.02987 12.8384 2.07573 12.3815C2.21173 11.0251 3.3644 10.1857 4.72667 10.1337C5.89187 10.0893 7.59853 10.0439 10.0189 10.0189C10.0439 7.59853 10.0893 5.89187 10.1337 4.72667C10.1857 3.3644 11.0251 2.21173 12.3815 2.07573C12.8384 2.02987 13.3757 2 14 2C14.6243 2 15.1616 2.02987 15.6185 2.07573C16.9749 2.21173 17.8143 3.3644 17.8663 4.72667C17.9107 5.89187 17.9561 7.59853 17.9811 10.0189C20.4015 10.0439 22.1081 10.0893 23.2733 10.1337C24.6356 10.1857 25.7883 11.0251 25.9243 12.3815C25.9701 12.8384 26 13.3757 26 14C26 14.6243 25.9701 15.1616 25.9243 15.6185C25.7883 16.9749 24.6356 17.8143 23.2733 17.8663C22.1081 17.9107 20.4015 17.9561 17.9811 17.9811C17.9561 20.4015 17.9107 22.1081 17.8663 23.2733C17.8143 24.6356 16.9749 25.7883 15.6185 25.9243C15.1616 25.9701 14.6243 26 14 26C13.3757 26 12.8384 25.9701 12.3815 25.9243Z" fill="#B000E1" stroke="#B000E1" stroke-width="3" stroke-linejoin="round"/>
</svg>
