<svg width="21" height="21" viewBox="0 0 21 21" fill="none" xmlns="http://www.w3.org/2000/svg">
<path d="M4.20023 0.92041C2.38873 0.92041 0.920227 2.38891 0.920227 4.20041V17.3204C0.920227 19.1319 2.38873 20.6004 4.20023 20.6004H17.3202C19.1317 20.6004 20.6002 19.1319 20.6002 17.3204V4.20041C20.6002 2.38891 19.1317 0.92041 17.3202 0.92041H4.20023ZM5.17764 5.13755H8.89692L11.5381 8.8907L14.7431 5.13755H15.9145L12.0671 9.64206L16.8114 16.3833H13.093L10.0281 12.0288L6.3088 16.3833H5.13737L9.49911 11.2775L5.17764 5.13755ZM6.97139 6.0747L13.5817 15.4461H15.0176L8.4073 6.0747H6.97139Z" fill="#B000E1"/>
</svg>
