<svg width="29" height="29" viewBox="0 0 29 29" fill="none" xmlns="http://www.w3.org/2000/svg">
<path d="M23.0688 17.4494C22.7025 17.8199 22.5341 18.3558 22.6176 18.8814L23.875 26.1446C23.9811 26.7602 23.7321 27.3831 23.2385 27.7389C22.7548 28.108 22.1112 28.1523 21.5837 27.857L15.3194 24.4469C15.1016 24.3258 14.8597 24.2609 14.6122 24.2535H14.2289C14.096 24.2741 13.9658 24.3184 13.847 24.3863L7.58134 27.8127C7.27159 27.9751 6.92082 28.0327 6.57713 27.9751C5.73982 27.8098 5.18114 26.9772 5.31833 26.0988L6.57713 18.8356C6.66058 18.3056 6.49227 17.7668 6.12594 17.3903L1.01862 12.2234C0.591479 11.7909 0.44297 11.1413 0.638154 10.5553C0.827681 9.97066 1.3114 9.54402 1.89554 9.44806L8.925 8.38368C9.45963 8.32611 9.9292 7.98657 10.1696 7.48464L13.2671 0.856231C13.3407 0.708605 13.4354 0.572789 13.55 0.457641L13.6773 0.354302C13.7438 0.277537 13.8202 0.214058 13.905 0.162389L14.0592 0.103338L14.2996 0H14.8951C15.4269 0.0575741 15.8951 0.389733 16.1397 0.885756L19.2782 7.48464C19.5045 7.96738 19.9444 8.30249 20.4522 8.38368L27.4816 9.44806C28.0757 9.53664 28.5721 9.96476 28.7687 10.5553C28.954 11.1472 28.7942 11.7968 28.3586 12.2234L23.0688 17.4494Z" fill="#FFE70F"/>
</svg>
