<svg width="29" height="29" viewBox="0 0 29 29" fill="none" xmlns="http://www.w3.org/2000/svg">
<path d="M23.0794 17.5306C22.7039 17.9028 22.5313 18.4412 22.6169 18.9692L23.9057 26.2662C24.0145 26.8846 23.7593 27.5105 23.2533 27.868C22.7575 28.2387 22.0978 28.2832 21.5571 27.9866L15.1358 24.5606C14.9126 24.439 14.6647 24.3737 14.4109 24.3663H14.018C13.8818 24.3871 13.7484 24.4316 13.6266 24.4998L7.20393 27.9421C6.88642 28.1053 6.52687 28.1631 6.17456 28.1053C5.31628 27.9392 4.7436 27.1027 4.88423 26.2202L6.17456 18.9232C6.2601 18.3908 6.08757 17.8494 5.71207 17.4712L0.476808 12.2803C0.0389649 11.8457 -0.113265 11.1932 0.0868086 10.6044C0.281083 10.017 0.776918 9.58842 1.37569 9.49201L8.58125 8.42268C9.12928 8.36484 9.61061 8.02372 9.85708 7.51946L13.0322 0.860214C13.1076 0.711901 13.2047 0.575453 13.3221 0.459769L13.4526 0.355951C13.5208 0.278828 13.599 0.215053 13.686 0.163144L13.8441 0.103819L14.0905 0H14.7009C15.246 0.057842 15.7259 0.391546 15.9767 0.889876L19.1939 7.51946C19.4258 8.00444 19.8767 8.34111 20.3972 8.42268L27.6028 9.49201C28.2117 9.581 28.7206 10.0111 28.9221 10.6044C29.112 11.1991 28.9482 11.8517 28.5016 12.2803L23.0794 17.5306Z" fill="#DDDDDD"/>
</svg>
